# Blender v2.77 (sub 0) OBJ File: ''
# www.blender.org
mtllib Small Scarab Bag.mtl
o MODELS_bin_052:poly000
v 0.013828 0.031016 0.025078
v 0.024141 0.031016 0.014180
v 0.013359 0.016406 0.024023
v 0.024023 0.016406 0.013594
v 0.029023 0.003633 0.016484
v 0.027656 0.016680 0.000000
v 0.033438 0.003594 0.000000
v 0.029375 0.003633 -0.015859
v 0.032461 -0.008320 -0.000000
v 0.028633 -0.007773 -0.015586
v 0.020742 -0.019844 -0.011172
v 0.016172 -0.007773 -0.028242
v 0.011758 -0.019844 -0.020313
v 0.000000 -0.008320 -0.032461
v 0.000117 -0.020078 -0.023008
v -0.011055 -0.019844 -0.020586
v 0.000117 -0.026875 -0.014727
v -0.007734 -0.026289 -0.014570
v 0.000117 -0.028672 -0.000195
v -0.014180 -0.026289 -0.008203
v -0.014531 -0.026875 -0.000039
v -0.020234 -0.019844 -0.011602
v -0.022891 -0.020078 -0.000000
v -0.028594 -0.008320 -0.000000
v -0.022266 -0.019844 0.011758
v -0.027813 -0.007773 0.015547
v -0.013281 -0.019844 0.020938
v -0.016133 -0.007773 0.025547
v 0.000000 -0.008320 0.032461
v -0.016289 0.003633 0.028828
v 0.000195 0.003594 0.033242
v 0.000273 0.016680 0.027383
v 0.010000 0.043359 0.016445
v 0.000078 0.046055 0.020273
v 0.002500 0.054961 0.004609
v 0.000000 0.055039 0.005195
v 0.000352 0.060000 0.006797
v -0.002578 0.054961 0.004570
v -0.003711 0.060117 0.005742
v -0.006875 0.060547 0.002539
v -0.010781 0.062656 0.017891
v -0.019063 0.064883 0.009727
v -0.025117 0.064883 0.012969
v -0.027734 0.066406 -0.000586
v -0.025430 0.062227 0.012578
v -0.028828 0.064102 -0.001250
v 0.024805 0.077695 -0.011484
v 0.026641 0.077773 0.002930
v 0.028086 0.075781 0.002305
v 0.024492 0.069453 0.015352
v 0.016055 0.003633 0.029141
v 0.014375 0.031016 -0.024805
v 0.000273 0.016680 -0.027383
v 0.013828 0.016406 -0.023750
v 0.015898 0.003086 -0.026250
v -0.015664 0.003633 -0.029180
v 0.000195 0.003594 -0.033242
v -0.012813 0.016406 -0.024023
v -0.013477 0.031016 -0.025117
v -0.027109 0.016680 0.000000
v -0.028984 0.003633 0.015859
v -0.031328 0.003594 0.000000
v 0.000156 0.031328 0.028516
v -0.014023 0.031016 0.024844
v -0.010156 0.045195 0.017969
v -0.018047 0.045195 0.009883
v -0.004609 0.054961 0.002500
v -0.007813 0.061016 -0.001328
v -0.021523 0.067422 -0.000234
v -0.018828 0.071250 -0.010273
v -0.024531 0.071875 -0.013633
v -0.013906 0.075313 -0.023477
v -0.025000 0.069727 -0.014492
v -0.013555 0.073672 -0.024805
v 0.024297 0.016406 -0.013086
v -0.022461 0.031016 -0.014180
v -0.009766 0.045195 -0.018164
v -0.017852 0.045195 -0.010234
v -0.004531 0.054961 -0.002578
v -0.020156 0.046055 0.000000
v -0.005195 0.055039 0.000000
v -0.024922 0.031016 0.013633
v -0.023750 0.016406 0.013047
v -0.013281 0.016406 0.023750
v -0.026680 0.003633 -0.016445
v -0.028242 -0.007773 -0.016133
v -0.015547 -0.007773 -0.028633
v 0.013203 0.063242 0.024453
v 0.014063 0.060117 0.024023
v 0.000000 0.060039 0.026484
v 0.000391 0.057266 0.026914
v -0.014102 0.058672 0.023281
v 0.014102 0.078203 -0.023086
v -0.000195 0.078516 -0.027070
v -0.000625 0.080078 -0.025273
v -0.014336 0.061211 0.023516
v -0.000078 0.062734 0.020781
v 0.010039 0.065117 0.018867
v 0.004297 0.060508 0.005898
v 0.004570 0.054961 0.002617
v 0.018047 0.045195 0.010273
v 0.020391 0.046055 0.000000
v 0.026094 0.031328 0.000000
v 0.023320 0.031016 -0.013672
v 0.023984 0.080547 -0.009883
v 0.000078 0.046055 -0.020273
v 0.002617 0.054961 -0.004531
v 0.000000 0.055039 -0.005195
v 0.000352 0.062891 -0.009336
v -0.002500 0.054961 -0.004609
v -0.003555 0.062695 -0.008398
v -0.006758 0.061953 -0.005312
v 0.018281 0.069922 0.011641
v 0.007500 0.061211 0.002852
v 0.008555 0.061836 -0.001172
v 0.005234 0.055039 0.000000
v 0.004609 0.054961 -0.002500
v 0.018281 0.045195 -0.009883
v 0.010352 0.045195 -0.017930
v 0.000156 0.031328 -0.025547
v 0.007617 0.062656 -0.005039
v 0.004453 0.063047 -0.008242
v 0.008320 -0.026289 -0.014375
v 0.014648 -0.026289 -0.007930
v 0.014805 -0.026875 -0.000039
v 0.023203 -0.020078 -0.000000
v 0.022383 -0.019844 0.013711
v 0.028281 -0.009805 0.017969
v 0.015586 -0.009805 0.030391
v -0.014570 -0.027070 0.009922
v -0.008242 -0.027070 0.016406
v 0.013203 -0.019844 0.022656
v 0.008008 -0.026289 0.014453
v 0.014453 -0.026289 0.008164
v -0.010547 0.074531 -0.017812
v 0.018516 0.076016 -0.008281
v 0.013359 0.080430 -0.021797
v 0.010391 0.076875 -0.016875
v -0.000195 0.076211 -0.019961
v 0.000117 -0.026875 0.014648
v 0.001992 -0.020078 0.025117
v -0.028359 0.031328 0.000000
v -0.023477 0.016406 -0.013555
v 0.020938 0.073477 0.001602
v 0.023672 0.072695 0.015625
vt 0.6465 0.4502
vt 0.6484 0.5811
vt 0.8984 0.4502
vt 0.8994 0.5811
vt 0.9014 0.7002
vt 1.0000 0.5752
vt 1.0000 0.7002
vt 0.9033 0.7002
vt 1.0000 0.8008
vt 0.8936 0.7930
vt 0.8818 0.9004
vt 0.6455 0.7930
vt 0.6338 0.9004
vt 0.5039 0.8008
vt 0.5049 0.9004
vt 0.3740 0.9004
vt 0.5039 0.9775
vt 0.4209 0.9570
vt 0.5029 1.0527
vt 0.2617 0.9570
vt 0.2510 0.9775
vt 0.1221 0.9004
vt 0.0000 0.9004
vt 0.0000 0.8008
vt 0.1201 0.9004
vt 0.1055 0.7930
vt 0.3701 0.9004
vt 0.3555 0.7930
vt 0.4980 0.8008
vt 0.3428 0.7002
vt 0.4971 0.7002
vt 0.4961 0.5752
vt 0.6240 0.3408
vt 0.4951 0.3252
vt 0.5947 0.2002
vt 0.4941 0.2002
vt 0.4932 0.1504
vt 0.3896 0.2002
vt 0.3896 0.1455
vt 0.1924 0.1455
vt 0.3896 0.1006
vt 0.1924 0.1006
vt 0.1240 0.0430
vt 0.0498 0.0508
vt 0.0732 0.0000
vt 0.0000 0.0000
vt 0.9209 0.0000
vt 1.0000 0.0000
vt 0.9492 0.0508
vt 0.9180 0.0000
vt 0.6494 0.7002
vt 0.6514 0.4502
vt 0.6533 0.5811
vt 0.5020 0.5752
vt 0.6553 0.7002
vt 0.5039 0.7002
vt 0.3486 0.7002
vt 0.3486 0.5811
vt 0.3496 0.4502
vt 0.0000 0.5752
vt 0.0000 0.7002
vt 0.0938 0.7002
vt 0.4951 0.4502
vt 0.3447 0.4502
vt 0.3643 0.3408
vt 0.1387 0.3408
vt 0.1924 0.2002
vt 0.0996 0.1504
vt 0.0996 0.1006
vt 0.1943 0.1006
vt 0.1279 0.0430
vt 0.3477 0.0430
vt 0.0752 0.0000
vt 0.3242 0.0000
vt 0.9023 0.5811
vt 0.0996 0.4502
vt 0.3682 0.3408
vt 0.1406 0.3408
vt 0.1934 0.2002
vt 0.0498 0.3252
vt 0.0996 0.2002
vt 0.0977 0.4502
vt 0.0957 0.5811
vt 0.3438 0.5811
vt 0.0967 0.7002
vt 0.1084 0.7930
vt 0.3604 0.7930
vt 0.6641 0.0000
vt 0.6348 0.0420
vt 0.4922 0.0508
vt 0.4922 0.0000
vt 0.3193 0.0000
vt 0.6699 0.0000
vt 0.4971 0.0508
vt 0.4980 0.0000
vt 0.3457 0.0410
vt 0.4932 0.1006
vt 0.5967 0.1006
vt 0.5957 0.1455
vt 0.7969 0.2002
vt 0.8535 0.3408
vt 0.9492 0.3252
vt 1.0000 0.4502
vt 0.9004 0.4502
vt 0.8740 0.0430
vt 0.4990 0.3252
vt 0.4971 0.2002
vt 0.5967 0.2002
vt 0.4971 0.1504
vt 0.3916 0.2002
vt 0.3926 0.1455
vt 0.1934 0.1455
vt 0.7998 0.1006
vt 0.7988 0.1455
vt 0.8994 0.1504
vt 0.8994 0.2002
vt 0.7979 0.2002
vt 0.8555 0.3408
vt 0.6270 0.3408
vt 0.5010 0.4502
vt 0.7998 0.1455
vt 0.5986 0.1455
vt 0.5859 0.9570
vt 0.7422 0.9570
vt 0.7510 0.9775
vt 1.0000 0.9004
vt 0.8799 0.9004
vt 0.8916 0.7930
vt 0.6406 0.7930
vt 0.2607 0.9570
vt 0.4189 0.9570
vt 0.6299 0.9004
vt 0.5830 0.9570
vt 0.7412 0.9570
vt 0.3926 0.1006
vt 0.8018 0.1006
vt 0.6396 0.0430
vt 0.6006 0.1006
vt 0.4971 0.1006
vt 0.5010 0.9775
vt 0.4990 0.9004
vt 0.0000 0.4502
vt 0.0977 0.5811
vt 0.8994 0.1006
vt 0.8721 0.0430
vn 0.8623 -0.3283 0.3856
vn 0.4876 0.1998 0.8499
vn 0.4814 -0.3120 0.8191
vn 0.8551 0.2085 0.4746
vn 0.8543 0.1863 0.4852
vn 0.9720 0.2350 -0.0090
vn 0.9860 0.1660 -0.0159
vn 0.8450 0.1225 -0.5206
vn 0.9500 -0.3094 -0.0408
vn 0.8184 -0.3393 -0.4638
vn 0.6607 -0.6678 -0.3428
vn 0.3926 -0.2799 -0.8761
vn 0.3831 -0.6743 -0.6313
vn 0.0083 -0.3182 -0.9480
vn -0.0168 -0.6901 -0.7236
vn -0.3533 -0.6816 -0.6407
vn 0.1063 -0.9358 -0.3360
vn -0.0848 -0.8760 -0.4747
vn 0.0081 -0.9995 -0.0311
vn -0.4419 -0.8582 -0.2613
vn -0.4032 -0.9145 -0.0331
vn -0.6852 -0.6342 -0.3581
vn -0.7619 -0.6459 -0.0485
vn -0.9458 -0.3244 -0.0124
vn -0.7557 -0.6049 0.2511
vn -0.8435 -0.2890 0.4527
vn -0.4250 -0.5985 0.6791
vn -0.5102 -0.3472 0.7868
vn -0.0784 -0.2654 0.9610
vn -0.4984 0.1055 0.8605
vn -0.5078 0.1560 0.8472
vn 0.0001 0.1790 0.9838
vn 0.8747 0.4409 0.2011
vn 0.4224 0.6180 0.6631
vn 0.2637 0.8542 0.4481
vn 0.0935 0.6978 0.7102
vn 0.4929 0.3450 0.7988
vn -0.0349 0.4144 0.9094
vn 0.0568 -0.7816 0.6212
vn -0.4409 0.3801 0.8131
vn -0.3135 -0.7933 0.5220
vn -0.5979 -0.7620 0.2488
vn -0.0687 -0.9879 -0.1393
vn -0.1876 -0.9758 -0.1121
vn 0.6349 -0.6385 -0.4350
vn 0.6329 -0.7517 -0.1856
vn 0.8731 -0.0360 -0.4862
vn 0.8638 -0.4901 -0.1173
vn -0.8176 -0.4336 0.3788
vn -0.7370 -0.6454 -0.2007
vn -0.2556 -0.9300 -0.2642
vn -0.7882 -0.1571 -0.5950
vn 0.4774 0.2296 0.8482
vn 0.5266 0.1404 0.8385
vn -0.0711 -0.2960 0.9525
vn 0.4555 0.2146 -0.8640
vn 0.0299 0.1444 -0.9891
vn 0.0151 0.2131 -0.9769
vn 0.4904 0.1717 -0.8544
vn -0.5367 0.1724 -0.8260
vn -0.4955 0.1733 -0.8511
vn -0.0288 0.1692 -0.9852
vn -0.4296 0.1727 -0.8864
vn -0.9881 0.1509 -0.0309
vn -0.9189 0.1632 0.3591
vn -0.9043 0.1181 0.4103
vn -0.0318 0.2230 0.9743
vn -0.2351 0.4083 0.8820
vn -0.3355 0.6667 0.6656
vn -0.6060 0.6927 0.3911
vn -0.8191 0.3592 0.4472
vn -0.7095 -0.6862 -0.1606
vn -0.1165 -0.9675 -0.2243
vn -0.1114 -0.8952 -0.4314
vn 0.6062 -0.7836 0.1360
vn 0.3694 -0.8774 0.3062
vn 0.8592 -0.3213 0.3981
vn 0.5140 -0.4487 0.7311
vn 0.8295 0.2203 -0.5133
vn 0.8067 0.1554 -0.5701
vn 0.7628 0.1236 -0.6347
vn -0.8713 0.1619 -0.4633
vn -0.8354 0.2029 -0.5108
vn -0.4035 0.6154 -0.6771
vn -0.6126 0.6402 -0.4635
vn -0.8041 0.3482 -0.4819
vn -0.7348 0.6782 0.0002
vn -0.9394 0.3417 0.0282
vn -0.8507 0.2113 0.4813
vn -0.8480 0.2091 0.4871
vn -0.8277 -0.3444 0.4431
vn -0.4892 0.1861 0.8521
vn -0.8764 0.1546 -0.4561
vn -0.8297 0.1200 -0.5452
vn -0.9417 -0.1774 -0.2858
vn -0.4628 -0.3359 -0.8203
vn -0.4175 0.0213 -0.9084
vn -0.2695 -0.5145 -0.8140
vn 0.0965 -0.5534 -0.8273
vn 0.0280 -0.2617 -0.9648
vn 0.4771 0.1490 -0.8662
vn -0.4503 -0.5353 0.7146
vn 0.1367 -0.9777 0.1597
vn 0.0939 -0.7970 0.5966
vn 0.4238 -0.4927 -0.7600
vn 0.2078 -0.9631 -0.1707
vn 0.3024 -0.9499 -0.0793
vn 0.4824 -0.7058 0.5188
vn 0.7824 0.3120 0.5390
vn 0.5942 0.7030 0.3908
vn 0.7566 0.6538 -0.0069
vn 0.9800 0.1985 -0.0125
vn 0.8749 0.2271 -0.4277
vn -0.2680 -0.9615 0.0601
vn -0.0024 0.6537 -0.7567
vn -0.0097 0.2947 -0.9555
vn 0.5107 0.2926 -0.8084
vn 0.0518 -0.5760 -0.8158
vn -0.4727 0.2805 -0.8354
vn -0.2614 -0.6028 -0.7539
vn -0.5248 -0.6589 -0.5389
vn 0.5935 -0.7937 -0.1337
vn 0.7367 -0.6243 0.2599
vn 0.8085 -0.5757 -0.1221
vn 0.9415 0.3356 0.0294
vn 0.8353 0.3110 -0.4533
vn 0.6678 0.5949 -0.4473
vn 0.4442 0.6679 -0.5972
vn 0.0414 0.2432 -0.9691
vn 0.7034 -0.5324 -0.4709
vn 0.4158 -0.5224 -0.7444
vn 0.0955 -0.8801 -0.4651
vn 0.4643 -0.8659 -0.1860
vn 0.3943 -0.9189 -0.0124
vn 0.6921 -0.7189 -0.0649
vn 0.6105 -0.7122 0.3465
vn 0.8211 -0.2523 0.5120
vn 0.3455 -0.3297 0.8786
vn -0.4312 -0.8910 0.1418
vn -0.0724 -0.9768 0.2018
vn 0.2889 -0.7216 0.6291
vn 0.2581 -0.9086 0.3284
vn 0.3832 -0.9089 0.1646
vn -0.0274 -0.8728 -0.4873
vn 0.5668 -0.7132 -0.4124
vn -0.0588 -0.9661 0.2515
vn 0.2756 -0.7511 -0.5999
vn 0.1544 -0.7338 -0.6616
vn 0.0354 -0.9312 0.3628
vn -0.0201 -0.6558 0.7547
vn -0.9865 0.1481 -0.0695
vn -0.8656 0.1896 -0.4635
vn 0.6622 -0.7088 -0.2430
vn -0.3327 -0.7600 -0.5582
vn 0.8673 0.1279 -0.4811
usemtl None
s 1
f 1/1/1 3/2/2 2/3/3
f 2/3/3 3/2/2 4/4/4
f 3/2/2 5/5/5 4/4/4
f 4/4/4 5/5/5 6/6/6
f 5/5/5 7/7/7 6/6/6
f 6/6/6 7/7/7 8/8/8
f 7/7/7 9/9/9 8/8/8
f 8/8/8 9/9/9 10/10/10
f 9/9/9 11/11/11 10/10/10
f 10/10/10 11/11/11 12/12/12
f 11/11/11 13/13/13 12/12/12
f 12/12/12 13/13/13 14/14/14
f 13/13/13 15/15/15 14/14/14
f 14/14/14 15/15/15 16/16/16
f 15/15/15 17/17/17 16/16/16
f 16/16/16 17/17/17 18/18/18
f 17/17/17 19/19/19 18/18/18
f 18/18/18 19/19/19 20/20/20
f 19/19/19 21/21/21 20/20/20
f 20/20/20 21/21/21 22/22/22
f 21/21/21 23/23/23 22/22/22
f 22/22/22 23/23/23 24/24/24
f 23/23/23 25/25/25 24/24/24
f 24/24/24 25/25/25 26/26/26
f 25/25/25 27/27/27 26/26/26
f 26/26/26 27/27/27 28/28/28
f 27/27/27 29/29/29 28/28/28
f 28/28/28 29/29/29 30/30/30
f 29/29/29 31/31/31 30/30/30
f 30/30/30 31/31/31 32/32/32
f 2/3/33 33/33/34 1/1/35
f 1/1/35 33/33/34 34/34/36
f 33/33/34 35/35/37 34/34/36
f 34/34/36 35/35/37 36/36/38
f 35/35/37 37/37/39 36/36/38
f 36/36/38 37/37/39 38/38/40
f 37/37/39 39/39/41 38/38/40
f 38/38/40 39/39/41 40/40/42
f 39/39/41 41/41/43 40/40/42
f 40/40/42 41/41/43 42/42/44
f 41/41/43 43/43/45 42/42/44
f 42/42/44 43/43/45 44/44/46
f 43/43/45 45/45/47 44/44/46
f 44/44/46 45/45/47 46/46/48
f 47/47/49 49/48/50 48/49/51
f 48/49/51 49/48/50 50/50/52
f 29/29/29 51/51/53 31/31/54
f 31/31/54 51/51/53 32/32/32
f 51/51/53 3/2/2 32/32/32
f 32/32/32 3/2/2 1/1/55
f 52/52/56 54/53/57 53/54/58
f 53/54/58 54/53/57 55/55/59
f 53/54/58 57/56/60 56/57/61
f 56/57/61 57/56/60 14/14/14
f 56/57/61 58/58/62 53/54/58
f 53/54/58 58/58/62 59/59/63
f 60/60/64 62/61/65 61/62/66
f 61/62/66 62/61/65 24/24/24
f 1/1/35 34/34/36 63/63/67
f 63/63/67 34/34/36 64/64/68
f 34/34/36 65/65/69 64/64/68
f 64/64/68 65/65/69 66/66/70
f 65/65/69 38/38/40 66/66/70
f 66/66/70 38/38/40 67/67/71
f 38/38/40 40/40/42 67/67/71
f 67/67/71 40/40/42 68/68/72
f 40/40/42 42/42/44 68/68/72
f 68/68/72 42/42/44 69/69/73
f 42/42/44 44/44/46 69/69/73
f 69/69/73 44/44/46 70/70/74
f 44/44/46 71/71/75 70/70/74
f 70/70/74 71/71/75 72/72/76
f 71/71/75 73/73/77 72/72/76
f 72/72/76 73/73/77 74/74/78
f 52/52/56 75/75/79 54/53/80
f 54/53/80 75/75/79 8/8/8
f 14/14/14 57/56/81 55/55/59
f 55/55/59 57/56/81 53/54/58
f 54/53/80 8/8/8 55/55/59
f 55/55/59 8/8/8 10/10/10
f 58/58/82 76/76/83 59/59/63
f 59/59/63 76/76/83 77/77/84
f 76/76/83 78/78/85 77/77/84
f 77/77/84 78/78/85 79/79/86
f 78/78/85 80/80/87 79/79/86
f 79/79/86 80/80/87 81/81/88
f 80/80/87 67/67/71 81/81/88
f 81/81/88 67/67/71 68/68/72
f 82/82/89 83/83/90 64/64/91
f 64/64/91 83/83/90 84/84/92
f 83/83/90 30/30/30 84/84/92
f 84/84/92 30/30/30 32/32/32
f 60/60/64 85/85/93 62/61/94
f 62/61/94 85/85/93 24/24/24
f 85/85/93 86/86/95 24/24/24
f 24/24/24 86/86/95 22/22/22
f 86/86/95 87/87/96 22/22/22
f 22/22/22 87/87/96 16/16/16
f 87/87/96 14/14/14 16/16/16
f 64/64/68 66/66/70 82/82/89
f 82/82/89 66/66/70 80/80/87
f 66/66/70 67/67/71 80/80/87
f 1/1/55 63/63/67 32/32/32
f 32/32/32 63/63/67 64/64/68
f 50/50/52 89/88/97 88/89/98
f 88/89/98 89/88/97 90/90/99
f 89/88/97 91/91/100 90/90/99
f 90/90/99 91/91/100 92/92/101
f 58/58/82 56/57/61 85/85/93
f 85/85/93 56/57/61 87/87/96
f 56/57/61 14/14/14 87/87/96
f 93/93/102 95/94/103 94/95/104
f 94/95/104 95/94/103 74/74/78
f 95/94/103 72/72/76 74/74/78
f 45/45/47 43/43/45 92/92/101
f 92/92/101 43/43/45 96/96/105
f 43/43/45 41/41/43 96/96/105
f 96/96/105 41/41/43 90/90/99
f 41/41/43 97/97/106 90/90/99
f 90/90/99 97/97/106 98/98/107
f 97/97/106 37/37/39 98/98/107
f 98/98/107 37/37/39 99/99/108
f 37/37/39 35/35/37 99/99/108
f 99/99/108 35/35/37 100/100/109
f 35/35/37 33/33/34 100/100/109
f 100/100/109 33/33/34 101/101/110
f 33/33/34 2/3/33 101/101/110
f 101/101/110 2/3/33 102/102/111
f 2/3/33 103/103/112 102/102/111
f 102/102/111 103/103/112 104/104/113
f 103/103/112 6/6/6 104/104/113
f 104/104/113 6/6/6 75/75/79
f 4/4/4 6/6/6 2/3/33
f 2/3/33 6/6/6 103/103/112
f 46/46/48 73/73/77 44/44/46
f 44/44/46 73/73/77 71/71/75
f 93/93/102 47/47/49 105/105/114
f 105/105/114 47/47/49 48/49/51
f 106/106/115 108/107/116 107/108/117
f 107/108/117 108/107/116 109/109/118
f 108/107/116 110/110/119 109/109/118
f 109/109/118 110/110/119 111/111/120
f 110/110/119 79/79/86 111/111/120
f 111/111/120 79/79/86 112/112/121
f 79/79/86 68/68/72 112/112/121
f 112/112/121 68/68/72 70/70/74
f 68/68/72 69/69/73 70/70/74
f 90/90/99 98/98/107 88/89/98
f 88/89/98 98/98/107 113/113/122
f 98/98/107 99/99/108 113/113/122
f 113/113/122 99/99/108 114/114/123
f 99/99/108 100/100/109 114/114/123
f 114/114/123 100/100/109 115/115/124
f 100/100/109 116/116/125 115/115/124
f 115/115/124 116/116/125 117/117/126
f 116/116/125 102/102/111 117/117/126
f 117/117/126 102/102/111 118/118/127
f 102/102/111 104/104/113 118/118/127
f 118/118/127 104/104/113 119/119/128
f 104/104/113 52/52/56 119/119/128
f 119/119/128 52/52/56 106/106/115
f 52/52/56 120/120/129 106/106/115
f 106/106/115 120/120/129 59/59/63
f 120/120/129 53/54/58 59/59/63
f 115/115/124 117/117/126 121/121/130
f 121/121/130 117/117/126 122/122/131
f 117/117/126 107/108/117 122/122/131
f 122/122/131 107/108/117 109/109/118
f 17/17/17 13/13/13 123/123/132
f 123/123/132 13/13/13 124/124/133
f 13/13/13 11/11/11 124/124/133
f 124/124/133 11/11/11 125/125/134
f 11/11/11 126/126/135 125/125/134
f 125/125/134 126/126/135 127/127/136
f 126/126/135 9/9/9 127/127/136
f 127/127/136 9/9/9 128/128/137
f 9/9/9 5/5/5 128/128/137
f 128/128/137 5/5/5 129/129/138
f 5/5/5 51/51/53 129/129/138
f 129/129/138 51/51/53 29/29/29
f 27/27/27 25/25/25 130/130/139
f 130/130/139 25/25/25 21/21/21
f 25/25/25 23/23/23 21/21/21
f 27/27/27 130/130/139 131/131/140
f 131/131/140 130/130/139 19/19/19
f 130/130/139 21/21/21 19/19/19
f 59/59/63 77/77/84 106/106/115
f 106/106/115 77/77/84 110/110/119
f 77/77/84 79/79/86 110/110/119
f 60/60/64 61/62/66 83/83/90
f 83/83/90 61/62/66 30/30/30
f 61/62/66 26/26/26 30/30/30
f 30/30/30 26/26/26 28/28/28
f 29/29/29 132/132/141 129/129/138
f 129/129/138 132/132/141 127/127/136
f 132/132/141 133/133/142 127/127/136
f 127/127/136 133/133/142 134/134/143
f 133/133/142 19/19/19 134/134/143
f 134/134/143 19/19/19 125/125/134
f 19/19/19 124/124/133 125/125/134
f 95/94/103 135/135/144 72/72/76
f 72/72/76 135/135/144 70/70/74
f 135/135/144 111/111/120 70/70/74
f 70/70/74 111/111/120 112/112/121
f 48/49/51 136/136/145 105/105/114
f 105/105/114 136/136/145 137/137/146
f 136/136/145 138/138/147 137/137/146
f 137/137/146 138/138/147 95/94/103
f 138/138/147 139/139/148 95/94/103
f 95/94/103 139/139/148 135/135/144
f 139/139/148 109/109/118 135/135/144
f 135/135/144 109/109/118 111/111/120
f 20/20/20 22/22/22 18/18/18
f 18/18/18 22/22/22 16/16/16
f 140/140/149 141/141/150 27/27/27
f 27/27/27 141/141/150 29/29/29
f 141/141/150 132/132/141 29/29/29
f 27/27/27 131/131/140 140/140/149
f 140/140/149 131/131/140 19/19/19
f 80/80/87 142/142/151 82/82/89
f 82/82/89 142/142/151 60/60/64
f 142/142/151 76/76/83 60/60/64
f 60/60/64 76/76/83 143/143/152
f 76/76/83 58/58/82 143/143/152
f 143/143/152 58/58/82 85/85/93
f 14/14/14 55/55/59 12/12/12
f 12/12/12 55/55/59 10/10/10
f 48/49/51 144/144/153 136/136/145
f 136/136/145 144/144/153 115/115/124
f 144/144/153 113/113/122 115/115/124
f 115/115/124 113/113/122 114/114/123
f 106/106/115 107/108/117 119/119/128
f 119/119/128 107/108/117 118/118/127
f 107/108/117 117/117/126 118/118/127
f 142/142/151 80/80/87 76/76/83
f 76/76/83 80/80/87 78/78/85
f 65/65/69 34/34/36 38/38/40
f 38/38/40 34/34/36 36/36/38
f 101/101/110 102/102/111 100/100/109
f 100/100/109 102/102/111 116/116/125
f 109/109/118 138/138/147 122/122/131
f 122/122/131 138/138/147 121/121/130
f 138/138/147 136/136/145 121/121/130
f 121/121/130 136/136/145 115/115/124
f 39/39/41 37/37/39 41/41/43
f 41/41/43 37/37/39 97/97/106
f 95/94/103 93/93/102 137/137/146
f 137/137/146 93/93/102 105/105/114
f 88/89/98 113/113/122 145/145/154
f 145/145/154 113/113/122 48/49/51
f 113/113/122 144/144/153 48/49/51
f 88/89/98 145/145/154 50/50/52
f 50/50/52 145/145/154 48/49/51
f 17/17/17 123/123/132 19/19/19
f 19/19/19 123/123/132 124/124/133
f 141/141/150 140/140/149 132/132/141
f 132/132/141 140/140/149 133/133/142
f 140/140/149 19/19/19 133/133/142
f 11/11/11 9/9/9 126/126/135
f 75/75/155 6/6/6 8/8/8
f 13/13/13 17/17/17 15/15/15
f 134/134/143 125/125/134 127/127/136
f 86/86/95 85/85/93 87/87/96
f 26/26/26 61/62/66 24/24/24
f 128/128/137 129/129/138 127/127/136
f 5/5/5 9/9/9 7/7/7
f 52/52/56 53/54/58 120/120/129
f 143/143/152 85/85/93 60/60/64
f 83/83/90 82/82/89 60/60/64
f 84/84/92 32/32/32 64/64/68
f 5/5/5 3/2/2 51/51/53
f 75/75/79 52/52/56 104/104/113
f 106/106/115 110/110/119 108/107/116
f 138/138/147 109/109/118 139/139/148
f 68/68/72 79/79/86 81/81/88
f 96/96/105 90/90/99 92/92/101
